<svg width="75" height="149" viewBox="0 0 75 149" fill="none" xmlns="http://www.w3.org/2000/svg">
<path d="M38.2802 91.2137L38.2771 91.2111C16.9884 73.5059 4.67382 47.0342 4.50015 18.551L4.50012 18.5471C4.48958 17.3361 5.15092 16.5533 5.70193 16.3711C5.70222 16.371 5.70251 16.3709 5.70279 16.3708L38.6953 5.5482C38.6954 5.54816 38.6955 5.54813 38.6956 5.54809C38.8862 5.48582 39.0909 5.48134 39.3117 5.55044C39.3134 5.55099 39.3152 5.55154 39.3169 5.5521L72.2974 16.3708C72.2977 16.3709 72.298 16.371 72.2983 16.3711C72.8403 16.5504 73.4986 17.3259 73.5 18.5563C73.3396 47.0152 61.0139 73.5003 39.7306 91.2048C39.4564 91.4257 39.1982 91.5 38.9927 91.5C38.7831 91.5 38.5307 91.4231 38.2802 91.2137ZM8.5996 19.9499L7.52672 20.3021L7.56852 21.4306C8.49436 46.425 19.4568 69.6799 38.0046 85.92L38.9927 86.7852L39.9809 85.92C58.5286 69.6799 69.4911 46.425 70.417 21.4306L70.4588 20.3021L69.3859 19.9499L39.4606 10.1251L38.9927 9.97145L38.5248 10.1251L8.5996 19.9499Z" stroke="white" stroke-width="3"/>
<path d="M37.0642 29.856C36.1256 29.856 35.3363 29.5573 34.6963 28.96C34.0989 28.32 33.8003 27.5307 33.8003 26.592C33.8003 25.6107 34.0989 24.8213 34.6963 24.224C35.3363 23.6267 36.1256 23.328 37.0642 23.328C38.0456 23.328 38.8349 23.6267 39.4323 24.224C40.0296 24.8213 40.3283 25.6107 40.3283 26.592C40.3283 27.5307 40.0296 28.32 39.4323 28.96C38.8349 29.5573 38.0456 29.856 37.0642 29.856ZM31.3683 68V66.976L35.4003 65.376V44.128L31.2403 41.632V40.992L39.2403 38.56H39.7523V65.376L43.9763 66.976V68H31.3683Z" fill="white"/>
</svg>
