<svg width="82" height="81" viewBox="0 0 82 81" fill="none" xmlns="http://www.w3.org/2000/svg">
<path d="M19.88 0.581451C9.29824 0.581451 0.68 9.10992 0.68 19.5815V61.3815C0.68 71.853 9.29824 80.3815 19.88 80.3815H62.12C72.7018 80.3815 81.32 71.853 81.32 61.3815V19.5815C81.32 9.10992 72.7018 0.581451 62.12 0.581451H19.88ZM19.88 4.38145H62.12C70.6269 4.38145 77.48 11.1632 77.48 19.5815V61.3815C77.48 69.7997 70.6269 76.5815 62.12 76.5815H19.88C11.3731 76.5815 4.52 69.7997 4.52 61.3815V19.5815C4.52 11.1632 11.3731 4.38145 19.88 4.38145ZM27.6537 13.9668C23.7267 13.7989 20.7462 15.2755 18.8712 17.0506C17.9338 17.9382 17.257 18.8878 16.7937 19.7744C16.3305 20.661 16.0362 21.3919 16.0362 22.3424C16.0362 22.2577 16.0152 22.7021 16.0025 23.2182C15.9898 23.7342 15.9921 24.4299 16.04 25.2703C16.1359 26.9512 16.4238 29.2248 17.1875 31.9203C18.7149 37.3114 22.1541 44.3833 29.615 51.7664C37.0759 59.1496 44.2218 62.5525 49.67 64.0645C52.3941 64.8204 54.6913 65.1049 56.39 65.2C57.2394 65.2476 57.9384 65.2496 58.46 65.2371C58.9816 65.2246 59.434 65.2037 59.3487 65.2037C60.3092 65.2037 61.0478 64.9125 61.9437 64.4541C62.8397 63.9957 63.7993 63.3259 64.6962 62.3983C66.4901 60.5429 67.9822 57.5934 67.8125 53.7072C67.732 51.8538 66.6921 50.2125 65.1575 49.2393C63.9716 48.4873 62.1305 47.3199 59.7275 45.7992C56.9395 44.0365 53.3735 43.9106 50.465 45.4875L50.63 45.4059L48.3687 46.367L48.2037 46.482C47.6541 46.8639 46.9734 46.9347 46.355 46.6787C44.6227 45.9618 41.9235 44.5533 39.4137 42.0697C36.904 39.5861 35.4807 36.9151 34.7562 35.2008C34.4976 34.5888 34.5691 33.9152 34.955 33.3713L35.0712 33.208L36.0425 30.9703L35.96 31.1336C37.5531 28.2562 37.4293 24.7274 35.645 21.9676C34.1083 19.5896 32.9287 17.7677 32.1687 16.5941C31.1852 15.0755 29.5267 14.0465 27.6537 13.9668ZM27.4887 17.7631C28.0273 17.786 28.5834 18.0978 28.9362 18.6426C29.697 19.8174 30.8772 21.6402 32.4125 24.016C33.4314 25.592 33.503 27.6633 32.5925 29.3078L32.5475 29.3895L31.6212 31.5307L31.8125 31.1856C30.6778 32.7849 30.4497 34.8618 31.2125 36.6666C32.0778 38.7143 33.7327 41.8213 36.6987 44.7565C39.6648 47.6917 42.8045 49.3292 44.8737 50.1856C46.6976 50.9404 48.7964 50.7147 50.4125 49.5918L50.0637 49.7811L52.2275 48.8645L52.31 48.8199C53.9711 47.9193 56.0641 47.9943 57.6575 49.0018V48.9981C60.0584 50.5174 61.9003 51.6853 63.0875 52.4381C63.638 52.7872 63.9531 53.3375 63.9762 53.8705C64.1022 56.756 63.0895 58.5625 61.9212 59.7709C61.3371 60.3751 60.7037 60.8136 60.1812 61.0809C59.6588 61.3482 59.1591 61.4037 59.3487 61.4037C58.9966 61.4037 58.8111 61.4266 58.37 61.4371C57.9289 61.4478 57.3376 61.4483 56.6075 61.4074C55.1474 61.3257 53.132 61.079 50.705 60.4055C45.851 59.0584 39.344 56.0207 32.33 49.0797C25.316 42.1387 22.2458 35.699 20.885 30.8961C20.2046 28.4946 19.955 26.4998 19.8725 25.0551C19.8313 24.3327 19.8318 23.7474 19.8425 23.3109C19.8533 22.8744 19.8762 22.6912 19.8762 22.3424C19.8762 22.53 19.9324 22.0356 20.2025 21.5186C20.4726 21.0016 20.9157 20.3747 21.5262 19.7967C22.7473 18.6406 24.5729 17.6384 27.4887 17.7631Z" fill="#F9F9F9"/>
</svg>
