<svg width="78" height="60" viewBox="0 0 78 60" fill="none" xmlns="http://www.w3.org/2000/svg">
<path d="M42.7208 2.98445e-05C33.9131 0.0124647 25.2615 3.61431 18.3281 10.9097C13.816 15.6572 11.2581 21.4432 10.5524 27.3937L10.4932 27.3743L0.197956 55.5754C0.0154815 56.0747 -0.0420067 56.6098 0.0303414 57.1355C0.102689 57.6611 0.302751 58.162 0.613647 58.5959C0.924542 59.0297 1.33715 59.3837 1.81666 59.6281C2.29616 59.8725 2.8285 60 3.36875 60H38.9448V59.9806C46.0336 59.9525 53.0537 57.2535 58.1472 51.8936C66.1157 43.5058 65.9228 29.9245 57.7065 21.5675C54.0958 17.8946 49.4136 15.3429 44.326 14.8369C39.2383 14.331 33.7788 16.0975 29.5574 20.5017C23.8516 26.4552 23.9481 36.295 29.8206 42.2177C31.8417 44.2541 34.5546 45.6975 37.6028 46.1837C40.6511 46.6698 44.2349 46.0108 46.8784 43.5095C48.8997 41.5948 49.6012 38.8568 49.2992 36.4431C48.9973 34.0294 47.8351 31.7897 46.0364 30.0097C45.7273 29.6913 45.3566 29.4366 44.9461 29.2605C44.5355 29.0844 44.0933 28.9906 43.6454 28.9844C43.1974 28.9782 42.7527 29.0598 42.3373 29.2244C41.9218 29.389 41.544 29.6334 41.2259 29.9431C40.9078 30.2529 40.6558 30.6218 40.4847 31.0283C40.3136 31.4349 40.2268 31.8709 40.2294 32.3107C40.2321 32.7506 40.324 33.1856 40.4999 33.5901C40.6758 33.9947 40.9321 34.3607 41.2538 34.6668C42.0385 35.4432 42.5184 36.4737 42.6156 37.2505C42.7127 38.0274 42.5678 38.4017 42.2011 38.7491C41.2306 39.6674 40.1434 39.8865 38.6817 39.6534C37.22 39.4202 35.5886 38.5459 34.6491 37.5993C31.5893 34.5133 31.5685 28.0582 34.4649 25.0361C37.4042 21.9695 40.4554 21.1014 43.6484 21.4189C46.8413 21.7364 50.2106 23.4601 52.8647 26.16C58.5386 31.931 58.6296 41.6913 53.2266 47.3786C46.1319 54.8443 33.6917 55.4449 25.5512 48.6059C15.0402 39.7764 14.0699 25.0825 23.2487 15.4247C29.0604 9.30968 35.7392 6.62418 42.734 6.6143C49.7288 6.60441 57.1397 9.38112 63.9691 14.8111C64.5512 15.2727 65.2732 15.5308 66.0212 15.5449C66.7692 15.5589 67.5008 15.328 68.1004 14.8886L76.6457 8.62313C77.0004 8.36317 77.2995 8.03715 77.5259 7.6637C77.7523 7.29024 77.9015 6.87665 77.9651 6.44656C78.0286 6.01647 78.0053 5.57829 77.8964 5.15705C77.7875 4.73581 77.5951 4.33977 77.3303 3.99153C77.0655 3.64329 76.7334 3.34968 76.353 3.12747C75.9727 2.90525 75.5514 2.75879 75.1134 2.69644C74.6753 2.63409 74.2291 2.65707 73.8001 2.76408C73.3711 2.87108 72.9678 3.06002 72.6132 3.32008L65.8374 8.29371C58.6006 3.15891 50.6848 -0.0112204 42.7208 2.98445e-05ZM12.447 41.6299C14.1941 45.9989 17.0237 50.048 20.9068 53.3857H8.15784L12.447 41.6299Z" fill="white"/>
</svg>
