<svg width="63" height="84" viewBox="0 0 63 84" fill="none" xmlns="http://www.w3.org/2000/svg">
<path d="M58.4374 40.4547C53.7026 37.5253 50.0626 35.6373 46.06 31.68C45.3348 30.9947 44.4248 30.1347 44.0552 30.1347C43.6926 29.7853 42.9674 30.1347 42.42 30.1347C40.4152 30.1347 38.9648 29.2747 37.3226 28.5826C39.1426 28.4147 41.1474 28.24 42.6048 28.24C49.1526 28.24 53.8874 29.7853 57.1648 31.68C58.2526 30.6453 59.8948 29.7853 60.8048 28.4147C59.71 27.2053 59.1626 24.2826 58.8 22.7373C58.4374 21.5347 58.4374 20.5 58.0748 19.8147C56.07 12.9347 53.7026 7.59997 49.7 2.43997C53.7026 9.83731 57.3426 17.4026 56.98 28.24C53.7026 27.2053 43.5148 26.52 42.42 26.52C40.7848 26.52 38.5952 27.0373 36.96 27.0373C37.6852 26.0026 38.0548 24.4573 39.3274 24.1147C40.0526 23.7653 40.9626 24.1147 42.0574 24.1147C45.3348 24.1147 48.9748 23.7653 49.8848 24.8C50.61 23.7653 52.2452 23.4226 52.6148 22.5626C52.6148 22.22 52.2452 20.6747 51.8826 19.64C51.52 18.6053 51.1574 17.4026 50.7948 16.7173C49.5152 11.5573 46.97 5.87997 44.9652 1.75466L44.24 0.719971C46.2448 7.08263 47.88 13.2773 47.88 21.36C44.24 21.36 42.7826 21.36 38.78 21.36C37.5074 22.3947 36.2348 24.1147 35.14 24.8C35.5026 23.2547 34.23 22.22 33.32 21.5347C33.6826 22.22 34.5926 24.1147 33.8674 25.1426C33.1352 25.1426 33.5048 24.1147 32.7726 24.1147C32.41 24.4573 31.8626 24.6253 31.5 24.6253C30.9526 24.6253 30.59 24.6253 30.2274 24.1147C29.4952 24.1147 29.8648 25.1426 29.1326 25.1426C28.4074 24.1147 29.3174 22.22 29.68 21.5347C28.5852 22.22 27.4974 23.2547 27.86 24.8C26.7652 24.1147 25.6774 22.3947 24.22 21.36C20.2174 21.36 18.76 21.36 15.12 21.36C15.12 13.2773 16.7552 7.08263 18.76 0.719971L18.0348 1.75466C16.03 5.87997 13.6626 11.7253 12.2052 16.7173C11.8426 17.4026 11.48 18.6053 11.1174 19.64C10.7548 20.6747 10.3852 22.22 10.3852 22.5626C10.7548 23.5973 12.39 23.94 13.1152 24.8C13.8474 23.7653 17.4874 24.1147 20.9426 24.1147C22.0374 24.1147 22.9474 23.7653 23.6726 24.1147C24.9452 24.4573 25.3148 26.0026 26.04 27.0373C24.4048 27.0373 22.2152 26.52 20.58 26.52C19.4852 26.52 9.29742 27.2053 6.02 28.24C5.65742 17.4026 9.29742 9.83731 13.3 2.43997C9.29742 7.59997 6.93 12.9347 4.92516 19.9826C4.56258 20.6747 4.56258 21.5347 4.2 22.9053C3.83742 24.4573 3.29 27.38 2.19516 28.5826C3.29 29.7853 4.92516 30.82 5.83516 31.8547C9.11258 29.96 13.8474 28.4147 20.3952 28.4147C21.6748 28.4147 23.6726 28.4147 25.6774 28.7573C24.0352 29.4426 22.5848 30.3026 20.58 30.3026C19.8548 30.3026 19.3074 29.96 18.9448 30.3026C18.5752 30.3026 17.6652 31.3373 16.94 31.8547C12.9374 35.6373 9.29742 37.7 4.56258 40.6226C3.29 41.6573 2.19515 42.5173 0.559998 41.3147C0.559998 54.04 3.65258 63.5 8.02484 72.1C8.56516 72.7853 9.66 74.68 9.66 74.68C6.38258 67.2826 4.2 58.6826 4.2 48.3626C4.2 47.3347 3.83742 45.7826 4.2 45.0973C4.56258 43.8947 6.56742 42.1747 7.84 41.3147C11.48 38.0426 14.21 36.84 18.2126 33.9173C18.9448 33.2253 19.4852 32.7147 20.2174 32.3653C20.9426 32.0226 24.22 31.5053 25.6774 30.82C24.0352 32.3653 22.0374 35.2947 20.0326 36.84C19.67 37.1826 19.3074 36.84 18.76 36.84C18.76 52.32 19.4852 65.3947 23.8574 76.2253C24.9452 78.8053 26.2248 81.3853 27.86 83.28C21.8526 72.96 22.4 56.2773 22.4 40.28C21.1274 39.2453 22.0374 38.7347 23.1252 37.5253C24.4048 36.3226 26.04 33.0573 27.86 32.3653C27.86 33.0573 27.4974 33.5747 27.1348 34.0853C26.7652 34.6026 26.04 35.4626 26.04 35.8053C25.6774 37.0147 26.4026 39.5947 26.7652 40.9653C27.86 45.44 29.1326 50.6 30.7748 54.04C31.5 54.04 31.1374 52.6626 31.5 52.32C31.8626 52.6626 31.5 54.04 32.2252 54.04C33.8674 50.6 35.3248 45.44 36.2348 40.9653C36.5974 39.7626 37.3226 37.1826 36.96 35.8053C36.96 35.4626 36.2348 34.7773 35.8652 34.26C35.5026 33.7426 35.14 33.0573 35.14 32.54C36.7752 33.2253 38.4174 36.3226 39.8748 37.7C40.9626 38.9026 41.8726 39.5947 40.6 40.4547C40.6 56.4453 41.1474 73.1347 35.14 83.4547C36.7752 81.56 38.2326 78.98 39.1426 76.4C43.5148 65.3947 44.24 52.32 44.24 36.84C43.5148 36.84 43.1452 37.1826 42.9674 36.84C40.9626 35.2947 38.9648 32.3653 37.3226 30.82C38.78 31.5053 42.0574 32.0226 42.7826 32.3653C43.5148 32.7147 44.0552 33.4 44.7874 33.9173C48.79 36.84 51.3352 38.2173 55.16 41.3147C56.4326 42.3426 58.4374 43.8947 58.8 45.0973C59.1626 45.7826 58.8 47.3347 58.8 48.3626C58.8 58.6826 56.7952 67.2826 53.34 74.68C53.34 74.68 54.4348 72.7853 54.9752 71.7573C59.3474 63.1573 62.44 53.6973 62.44 40.9653C60.8048 42.3426 59.71 41.3147 58.4374 40.4547Z" fill="white"/>
</svg>
